# This file uses centimeters as units for non-parametric coordinates.

mtllib belt.mtl
g default
v 1.615355 4.586074 -0.757278
v 1.749863 4.640414 -1.013695
v 1.575206 5.567623 -0.570328
v 1.709715 5.621963 -0.826745
v 0.686422 5.618034 -1.025873
v 0.820931 5.672374 -1.282291
v 0.726571 4.636485 -1.212823
v 0.861079 4.690826 -1.469241
vt 0.375000 0.000000
vt 0.625000 0.000000
vt 0.375000 0.250000
vt 0.625000 0.250000
vt 0.375000 0.500000
vt 0.625000 0.500000
vt 0.375000 0.750000
vt 0.625000 0.750000
vt 0.375000 1.000000
vt 0.625000 1.000000
vt 0.875000 0.000000
vt 0.875000 0.250000
vt 0.125000 0.000000
vt 0.125000 0.250000
vn 0.888784 -0.050411 0.455546
vn 0.888784 -0.050411 0.455546
vn 0.888784 -0.050411 0.455546
vn 0.888784 -0.050411 0.455546
vn -0.040148 0.981549 0.186950
vn -0.040148 0.981549 0.186950
vn -0.040148 0.981549 0.186950
vn -0.040148 0.981549 0.186950
vn -0.888784 0.050411 -0.455546
vn -0.888784 0.050411 -0.455546
vn -0.888784 0.050411 -0.455546
vn -0.888784 0.050411 -0.455546
vn 0.040148 -0.981549 -0.186950
vn 0.040148 -0.981549 -0.186950
vn 0.040148 -0.981549 -0.186950
vn 0.040148 -0.981549 -0.186950
vn 0.456564 0.184447 -0.870361
vn 0.456564 0.184447 -0.870361
vn 0.456564 0.184447 -0.870361
vn 0.456564 0.184447 -0.870361
vn -0.456564 -0.184447 0.870361
vn -0.456564 -0.184447 0.870361
vn -0.456564 -0.184447 0.870361
vn -0.456564 -0.184447 0.870361
s 1
g BELT3 BELT
usemtl initialShadingGroup
f 1/1/1 2/2/2 3/3/3
f 3/3/3 2/2/2 4/4/4
s 2
f 3/3/5 4/4/6 5/5/7
f 5/5/7 4/4/6 6/6/8
s 3
f 5/5/9 6/6/10 7/7/11
f 7/7/11 6/6/10 8/8/12
s 4
f 7/7/13 8/8/14 1/9/15
f 1/9/15 8/8/14 2/10/16
s 5
f 2/2/17 8/11/18 4/4/19
f 4/4/19 8/11/18 6/12/20
s 6
f 7/13/21 1/1/22 5/14/23
f 5/14/23 1/1/22 3/3/24
g default
v -1.681787 4.076987 0.687438
v -1.411169 4.059394 0.572323
v -1.559549 5.059969 0.824572
v -1.288931 5.042375 0.709457
v -1.935445 5.233698 -0.085659
v -1.664827 5.216105 -0.200774
v -2.057683 4.250717 -0.222793
v -1.787065 4.233123 -0.337908
vt 0.375000 0.000000
vt 0.625000 0.000000
vt 0.375000 0.250000
vt 0.625000 0.250000
vt 0.375000 0.500000
vt 0.625000 0.500000
vt 0.375000 0.750000
vt 0.625000 0.750000
vt 0.375000 1.000000
vt 0.625000 1.000000
vt 0.875000 0.000000
vt 0.875000 0.250000
vt 0.125000 0.000000
vt 0.125000 0.250000
vn 0.375896 -0.173729 0.910231
vn 0.375896 -0.173729 0.910231
vn 0.375896 -0.173729 0.910231
vn 0.375896 -0.173729 0.910231
vn 0.122238 0.982981 0.137134
vn 0.122238 0.982981 0.137134
vn 0.122238 0.982981 0.137134
vn 0.122238 0.982981 0.137134
vn -0.375896 0.173729 -0.910231
vn -0.375896 0.173729 -0.910231
vn -0.375896 0.173729 -0.910231
vn -0.375896 0.173729 -0.910231
vn -0.122238 -0.982981 -0.137134
vn -0.122238 -0.982981 -0.137134
vn -0.122238 -0.982981 -0.137134
vn -0.122238 -0.982981 -0.137134
vn 0.918564 -0.059717 -0.390735
vn 0.918564 -0.059717 -0.390735
vn 0.918564 -0.059717 -0.390735
vn 0.918564 -0.059717 -0.390735
vn -0.918564 0.059717 0.390735
vn -0.918564 0.059717 0.390735
vn -0.918564 0.059717 0.390735
vn -0.918564 0.059717 0.390735
s 1
g BELT BELT2
usemtl initialShadingGroup
f 9/15/25 10/16/26 11/17/27
f 11/17/27 10/16/26 12/18/28
s 2
f 11/17/29 12/18/30 13/19/31
f 13/19/31 12/18/30 14/20/32
s 3
f 13/19/33 14/20/34 15/21/35
f 15/21/35 14/20/34 16/22/36
s 4
f 15/21/37 16/22/38 9/23/39
f 9/23/39 16/22/38 10/24/40
s 5
f 10/16/41 16/25/42 12/18/43
f 12/18/43 16/25/42 14/26/44
s 6
f 15/27/45 9/15/46 13/28/47
f 13/28/47 9/15/46 11/17/48
g default
v 1.350683 5.358225 -0.558145
v 0.568753 5.383537 -0.969888
v -0.390239 5.314603 -0.969281
v -1.159991 5.177753 -0.556557
v -1.446484 5.025259 0.110639
v -1.140287 4.915368 0.777460
v -0.358357 4.890056 1.189203
v 0.600635 4.958991 1.188596
v 1.370387 5.095841 0.775872
v 1.656880 5.248335 0.108676
v 1.551408 5.490676 -0.650551
v 0.639156 5.520207 -1.130918
v -0.479668 5.439783 -1.130210
v -1.377712 5.280125 -0.648699
v -1.711954 5.102215 0.129696
v -1.354724 4.974010 0.907654
v -0.442472 4.944479 1.388021
v 0.676352 5.024902 1.387314
v 1.574396 5.184561 0.905802
v 1.908637 5.362470 0.127407
v 1.565120 5.299584 -0.688339
v 0.652868 5.329115 -1.168706
v -0.465956 5.248692 -1.167998
v -1.364000 5.089033 -0.686487
v -1.698242 4.911123 0.091908
v -1.341012 4.782918 0.869866
v -0.428760 4.753387 1.350233
v 0.690064 4.833810 1.349526
v 1.588108 4.993469 0.868014
v 1.922350 5.171379 0.089619
vt 0.000000 1.000000
vt 0.100000 1.000000
vt 0.200000 1.000000
vt 0.300000 1.000000
vt 0.400000 1.000000
vt 0.500000 1.000000
vt 0.600000 1.000000
vt 0.700000 1.000000
vt 0.800000 1.000000
vt 0.900000 1.000000
vt 1.000000 1.000000
vt 0.000000 0.666667
vt 0.100000 0.666667
vt 0.200000 0.666667
vt 0.300000 0.666667
vt 0.400000 0.666667
vt 0.500000 0.666667
vt 0.600000 0.666667
vt 0.700000 0.666667
vt 0.800000 0.666667
vt 0.900000 0.666667
vt 1.000000 0.666667
vt 0.000000 0.333333
vt 0.100000 0.333333
vt 0.200000 0.333333
vt 0.300000 0.333333
vt 0.400000 0.333333
vt 0.500000 0.333333
vt 0.600000 0.333333
vt 0.700000 0.333333
vt 0.800000 0.333333
vt 0.900000 0.333333
vt 1.000000 0.333333
vt 0.000000 -0.000000
vt 0.100000 -0.000000
vt 0.200000 -0.000000
vt 0.300000 -0.000000
vt 0.400000 -0.000000
vt 0.500000 -0.000000
vt 0.600000 -0.000000
vt 0.700000 -0.000000
vt 0.800000 -0.000000
vt 0.900000 -0.000000
vt 1.000000 -0.000000
vn -0.265937 0.789214 0.553551
vn -0.265937 0.789214 0.553551
vn -0.265937 0.789214 0.553551
vn -0.265937 0.789214 0.553551
vn -0.055167 0.773030 0.631966
vn -0.055167 0.773030 0.631966
vn -0.055167 0.773030 0.631966
vn -0.055167 0.773030 0.631966
vn 0.151022 0.819186 0.553288
vn 0.151022 0.819186 0.553288
vn 0.151022 0.819186 0.553288
vn 0.151022 0.819186 0.553288
vn 0.284664 0.900730 0.328105
vn 0.284664 0.900730 0.328105
vn 0.284664 0.900730 0.328105
vn 0.284664 0.900730 0.328105
vn 0.280252 0.959475 0.029430
vn 0.280252 0.959475 0.029430
vn 0.280252 0.959475 0.029430
vn 0.280252 0.959475 0.029430
vn 0.139807 0.968521 -0.205964
vn 0.139808 0.968521 -0.205964
vn 0.139807 0.968521 -0.205964
vn 0.139808 0.968521 -0.205964
vn -0.068791 0.954441 -0.290363
vn -0.068791 0.954441 -0.290363
vn -0.068791 0.954441 -0.290363
vn -0.068791 0.954441 -0.290363
vn -0.277152 0.938549 -0.205700
vn -0.277152 0.938549 -0.205700
vn -0.277152 0.938549 -0.205700
vn -0.277152 0.938549 -0.205700
vn -0.414563 0.909530 0.029870
vn -0.414563 0.909530 0.029870
vn -0.414563 0.909530 0.029870
vn -0.414563 0.909530 0.029870
vn -0.410151 0.850785 0.328544
vn -0.410151 0.850785 0.328544
vn -0.410151 0.850785 0.328544
vn -0.410151 0.850785 0.328544
vn 0.461299 0.203858 -0.863508
vn 0.461299 0.203858 -0.863508
vn 0.461299 0.203858 -0.863508
vn 0.461299 0.203858 -0.863508
vn -0.014492 0.192970 -0.981098
vn -0.014491 0.192970 -0.981098
vn -0.014492 0.192970 -0.981098
vn -0.014491 0.192970 -0.981098
vn -0.486799 0.135707 -0.862908
vn -0.486799 0.135707 -0.862908
vn -0.486799 0.135707 -0.862908
vn -0.486799 0.135707 -0.862908
vn -0.919765 0.011577 -0.392299
vn -0.919765 0.011577 -0.392299
vn -0.919765 0.011577 -0.392299
vn -0.919765 0.011577 -0.392299
vn -0.908159 -0.142971 0.393455
vn -0.908159 -0.142971 0.393455
vn -0.908159 -0.142972 0.393456
vn -0.908159 -0.142972 0.393456
vn -0.461299 -0.203858 0.863508
vn -0.461299 -0.203858 0.863508
vn -0.461299 -0.203858 0.863508
vn -0.461299 -0.203858 0.863508
vn 0.014491 -0.192970 0.981098
vn 0.014492 -0.192970 0.981098
vn 0.014491 -0.192970 0.981098
vn 0.014492 -0.192970 0.981098
vn 0.486799 -0.135707 0.862908
vn 0.486799 -0.135707 0.862908
vn 0.486799 -0.135707 0.862908
vn 0.486799 -0.135707 0.862908
vn 0.919765 -0.011577 0.392299
vn 0.919765 -0.011577 0.392299
vn 0.919765 -0.011577 0.392299
vn 0.919765 -0.011577 0.392299
vn 0.908159 0.142971 -0.393455
vn 0.908159 0.142971 -0.393455
vn 0.908159 0.142971 -0.393455
vn 0.908159 0.142971 -0.393455
vn -0.139808 -0.968521 0.205964
vn -0.139807 -0.968521 0.205964
vn -0.139808 -0.968521 0.205964
vn -0.139807 -0.968521 0.205964
vn 0.068791 -0.954441 0.290363
vn 0.068791 -0.954441 0.290363
vn 0.068791 -0.954441 0.290363
vn 0.068791 -0.954441 0.290363
vn 0.277152 -0.938549 0.205700
vn 0.277152 -0.938549 0.205700
vn 0.277152 -0.938549 0.205700
vn 0.277152 -0.938549 0.205700
vn 0.414563 -0.909530 -0.029870
vn 0.414563 -0.909530 -0.029870
vn 0.414563 -0.909530 -0.029870
vn 0.414563 -0.909531 -0.029870
vn 0.410151 -0.850785 -0.328544
vn 0.410151 -0.850785 -0.328544
vn 0.410151 -0.850785 -0.328544
vn 0.410151 -0.850785 -0.328544
vn 0.265937 -0.789214 -0.553551
vn 0.265937 -0.789214 -0.553552
vn 0.265937 -0.789214 -0.553551
vn 0.265937 -0.789214 -0.553551
vn 0.055167 -0.773030 -0.631966
vn 0.055167 -0.773030 -0.631966
vn 0.055167 -0.773030 -0.631966
vn 0.055167 -0.773030 -0.631966
vn -0.151022 -0.819185 -0.553288
vn -0.151022 -0.819185 -0.553288
vn -0.151022 -0.819185 -0.553288
vn -0.151022 -0.819185 -0.553288
vn -0.284664 -0.900730 -0.328105
vn -0.284664 -0.900730 -0.328105
vn -0.284664 -0.900730 -0.328105
vn -0.284664 -0.900730 -0.328105
vn -0.280252 -0.959475 -0.029430
vn -0.280252 -0.959475 -0.029430
vn -0.280252 -0.959475 -0.029430
vn -0.280252 -0.959475 -0.029430
s 1
g BELT BELT
usemtl initialShadingGroup
f 18/30/49 17/29/50 28/41/51
f 28/41/51 17/29/50 27/40/52
s 2
f 19/31/53 18/30/54 29/42/55
f 29/42/55 18/30/54 28/41/56
s 3
f 20/32/57 19/31/58 30/43/59
f 30/43/59 19/31/58 29/42/60
s 4
f 21/33/61 20/32/62 31/44/63
f 31/44/63 20/32/62 30/43/64
s 5
f 22/34/65 21/33/66 32/45/67
f 32/45/67 21/33/66 31/44/68
s 6
f 23/35/69 22/34/70 33/46/71
f 33/46/71 22/34/70 32/45/72
s 7
f 24/36/73 23/35/74 34/47/75
f 34/47/75 23/35/74 33/46/76
s 8
f 25/37/77 24/36/78 35/48/79
f 35/48/79 24/36/78 34/47/80
s 9
f 26/38/81 25/37/82 36/49/83
f 36/49/83 25/37/82 35/48/84
s 10
f 17/39/85 26/38/86 27/50/87
f 27/50/87 26/38/86 36/49/88
s 11
f 28/41/89 27/40/90 38/52/91
f 38/52/91 27/40/90 37/51/92
s 12
f 29/42/93 28/41/94 39/53/95
f 39/53/95 28/41/94 38/52/96
s 13
f 30/43/97 29/42/98 40/54/99
f 40/54/99 29/42/98 39/53/100
s 14
f 31/44/101 30/43/102 41/55/103
f 41/55/103 30/43/102 40/54/104
s 15
f 32/45/105 31/44/106 42/56/107
f 42/56/107 31/44/106 41/55/108
s 16
f 33/46/109 32/45/110 43/57/111
f 43/57/111 32/45/110 42/56/112
s 17
f 34/47/113 33/46/114 44/58/115
f 44/58/115 33/46/114 43/57/116
s 18
f 35/48/117 34/47/118 45/59/119
f 45/59/119 34/47/118 44/58/120
s 19
f 36/49/121 35/48/122 46/60/123
f 46/60/123 35/48/122 45/59/124
s 20
f 27/50/125 36/49/126 37/61/127
f 37/61/127 36/49/126 46/60/128
s 21
f 38/52/129 37/51/130 18/63/131
f 18/63/131 37/51/130 17/62/132
s 22
f 39/53/133 38/52/134 19/64/135
f 19/64/135 38/52/134 18/63/136
s 23
f 40/54/137 39/53/138 20/65/139
f 20/65/139 39/53/138 19/64/140
s 24
f 41/55/141 40/54/142 21/66/143
f 21/66/143 40/54/142 20/65/144
s 25
f 42/56/145 41/55/146 22/67/147
f 22/67/147 41/55/146 21/66/148
s 26
f 43/57/149 42/56/150 23/68/151
f 23/68/151 42/56/150 22/67/152
s 27
f 44/58/153 43/57/154 24/69/155
f 24/69/155 43/57/154 23/68/156
s 28
f 45/59/157 44/58/158 25/70/159
f 25/70/159 44/58/158 24/69/160
s 29
f 46/60/161 45/59/162 26/71/163
f 26/71/163 45/59/162 25/70/164
s 30
f 37/61/165 46/60/166 17/72/167
f 17/72/167 46/60/166 26/71/168
