# This file uses centimeters as units for non-parametric coordinates.

mtllib Nuclear Plant.mtl
g flare2Set tweakSet1
v 1.088274 0.046288 -0.351064
v 0.925741 0.046288 -0.670053
v 0.672590 0.046288 -0.923203
v 0.353602 0.046288 -1.085736
v 0.000000 0.046288 -1.141741
v -0.353602 0.046288 -1.085736
v -0.672590 0.046288 -0.923203
v -0.925741 0.046288 -0.670052
v -1.088274 0.046288 -0.351064
v -1.144279 0.046288 0.002538
v -1.088274 0.046288 0.356139
v -0.925741 0.046288 0.675128
v -0.672590 0.046288 0.928279
v -0.353601 0.046288 1.090811
v -0.000000 0.046288 1.146816
v 0.353601 0.046288 1.090811
v 0.672590 0.046288 0.928278
v 0.925741 0.046288 0.675128
v 1.088273 0.046288 0.356139
v 1.144278 0.046288 0.002538
g flare1Set tweakSet1
v 0.576847 2.767503 -0.205379
v 0.488197 2.767503 -0.379364
v 0.350121 2.767503 -0.517440
v 0.176136 2.767503 -0.606090
v -0.016728 2.767503 -0.636637
v -0.209592 2.767503 -0.606090
v -0.383578 2.767503 -0.517440
v -0.521653 2.767503 -0.379364
v -0.610303 2.767503 -0.205379
v -0.640850 2.767503 -0.012515
v -0.610303 2.767503 0.180349
v -0.521653 2.767503 0.354335
v -0.383578 2.767503 0.492410
v -0.209592 2.767503 0.581060
v -0.016728 2.767503 0.611607
v 0.176136 2.767503 0.581060
v 0.350121 2.767503 0.492410
v 0.488196 2.767503 0.354335
v 0.576846 2.767503 0.180349
v 0.607393 2.767503 -0.012515
v 0.628089 2.977907 -0.201251
v 0.534319 2.977907 -0.385285
v 0.388268 2.977907 -0.531336
v 0.204234 2.977907 -0.625106
v 0.000231 2.977907 -0.657417
v -0.203773 2.977907 -0.625106
v -0.387807 2.977907 -0.531335
v -0.533857 2.977907 -0.385285
v -0.627628 2.977907 -0.201251
v -0.659939 2.977907 0.002753
v -0.627628 2.977907 0.206756
v -0.533857 2.977907 0.390790
v -0.387807 2.977907 0.536840
v -0.203773 2.977907 0.630611
v 0.000231 2.977907 0.662922
v 0.204234 2.977907 0.630611
v 0.388268 2.977907 0.536840
v 0.534318 2.977907 0.390790
v 0.628088 2.977907 0.206756
v 0.660400 2.977907 0.002753
g flare2Set tweakSet1
v 0.000000 0.046288 0.002537
g flare1Set tweakSet1
v 0.000231 2.977906 0.002752
g flare1Set flare2Set tweakSet1
v 0.320818 2.282983 0.450223
v 0.162511 2.282983 0.530884
v -0.012974 2.282983 0.558678
v -0.188459 2.282983 0.530884
v -0.346766 2.282983 0.450223
v -0.472400 2.282983 0.324589
v -0.553062 2.282983 0.166282
v -0.580856 2.282983 -0.009203
v -0.553062 2.282983 -0.184688
v -0.472400 2.282983 -0.342995
v -0.346767 2.282983 -0.468629
v -0.188459 2.282983 -0.549290
v -0.012974 2.282983 -0.577085
v 0.162511 2.282983 -0.549290
v 0.320818 2.282983 -0.468629
v 0.446452 2.282983 -0.342995
v 0.527113 2.282983 -0.184688
v 0.554907 2.282983 -0.009203
v 0.527113 2.282983 0.166282
v 0.446451 2.282983 0.324589
g flare2Set
v 0.983452 0.046288 0.561862
v 0.475092 2.282983 0.268378
g default
v 0.519674 2.767503 0.292557
v 0.567614 2.977907 0.325444
g flare2Set
v 0.702332 1.068154 0.400116
v 0.660792 1.068154 0.481643
v 0.478578 1.068154 0.663857
v 0.248975 1.068154 0.780845
v -0.005542 1.068154 0.821157
v -0.260059 1.068154 0.780845
v -0.489662 1.068154 0.663857
v -0.671876 1.068154 0.481643
v -0.788865 1.068154 0.252040
v -0.829176 1.068154 -0.002477
v -0.788865 1.068154 -0.256994
v -0.671876 1.068154 -0.486597
v -0.489662 1.068154 -0.668811
v -0.260059 1.068154 -0.785800
v -0.005542 1.068154 -0.826112
v 0.248975 1.068154 -0.785800
v 0.478578 1.068154 -0.668812
v 0.660793 1.068154 -0.486597
v 0.777781 1.068154 -0.256994
v 0.818092 1.068154 -0.002477
v 0.777781 1.068154 0.252040
vt 0.648603 0.107966
vt 0.626409 0.064408
vt 0.591842 0.029841
vt 0.548284 0.007647
vt 0.500000 -0.000000
vt 0.451716 0.007647
vt 0.408159 0.029841
vt 0.373591 0.064409
vt 0.351397 0.107966
vt 0.343750 0.156250
vt 0.351397 0.204534
vt 0.373591 0.248091
vt 0.408159 0.282659
vt 0.451716 0.304853
vt 0.500000 0.312500
vt 0.548284 0.304853
vt 0.591841 0.282659
vt 0.626409 0.248091
vt 0.648603 0.204534
vt 0.656250 0.156250
vt 0.375000 0.312500
vt 0.387500 0.312500
vt 0.400000 0.312500
vt 0.412500 0.312500
vt 0.425000 0.312500
vt 0.437500 0.312500
vt 0.450000 0.312500
vt 0.462500 0.312500
vt 0.475000 0.312500
vt 0.487500 0.312500
vt 0.500000 0.312500
vt 0.512500 0.312500
vt 0.525000 0.312500
vt 0.537500 0.312500
vt 0.550000 0.312500
vt 0.562500 0.312500
vt 0.575000 0.312500
vt 0.587500 0.312500
vt 0.600000 0.312500
vt 0.612500 0.312500
vt 0.625000 0.312500
vt 0.375000 0.500470
vt 0.387500 0.500470
vt 0.400000 0.500470
vt 0.412500 0.500470
vt 0.425000 0.500470
vt 0.437500 0.500470
vt 0.450000 0.500470
vt 0.462500 0.500470
vt 0.475000 0.500470
vt 0.487500 0.500470
vt 0.500000 0.500470
vt 0.512500 0.500470
vt 0.525000 0.500470
vt 0.537500 0.500470
vt 0.550000 0.500470
vt 0.562500 0.500470
vt 0.575000 0.500470
vt 0.587500 0.500470
vt 0.600000 0.500470
vt 0.612500 0.500470
vt 0.625000 0.500470
vt 0.375000 0.688440
vt 0.387500 0.688440
vt 0.400000 0.688440
vt 0.412500 0.688440
vt 0.425000 0.688440
vt 0.437500 0.688440
vt 0.450000 0.688440
vt 0.462500 0.688440
vt 0.475000 0.688440
vt 0.487500 0.688440
vt 0.500000 0.688440
vt 0.512500 0.688440
vt 0.525000 0.688440
vt 0.537500 0.688440
vt 0.550000 0.688440
vt 0.562500 0.688440
vt 0.575000 0.688440
vt 0.587500 0.688440
vt 0.600000 0.688440
vt 0.612500 0.688440
vt 0.625000 0.688440
vt 0.648603 0.795466
vt 0.626409 0.751908
vt 0.591842 0.717341
vt 0.548284 0.695147
vt 0.500000 0.687500
vt 0.451716 0.695147
vt 0.408159 0.717341
vt 0.373591 0.751909
vt 0.351397 0.795466
vt 0.343750 0.843750
vt 0.351397 0.892034
vt 0.373591 0.935591
vt 0.408159 0.970159
vt 0.451716 0.992353
vt 0.500000 1.000000
vt 0.548284 0.992353
vt 0.591841 0.970159
vt 0.626409 0.935591
vt 0.648603 0.892034
vt 0.656250 0.843750
vt 0.500000 0.150000
vt 0.500000 0.837500
vt 0.575000 0.467001
vt 0.562500 0.467001
vt 0.550000 0.467001
vt 0.537500 0.467001
vt 0.525000 0.467001
vt 0.512500 0.467001
vt 0.500000 0.467001
vt 0.487500 0.467001
vt 0.475000 0.467001
vt 0.462500 0.467001
vt 0.450000 0.467001
vt 0.437500 0.467001
vt 0.425000 0.467001
vt 0.412500 0.467001
vt 0.400000 0.467001
vt 0.387500 0.467001
vt 0.625000 0.467001
vt 0.375000 0.467001
vt 0.612500 0.467001
vt 0.600000 0.467001
vt 0.587500 0.467001
vt 0.591938 0.312500
vt 0.634289 0.232625
vt 0.591938 0.467001
vt 0.591938 0.500470
vt 0.634289 0.767375
vt 0.591938 0.688440
vt 0.591938 0.383086
vt 0.587500 0.383086
vt 0.575000 0.383086
vt 0.562500 0.383086
vt 0.550000 0.383086
vt 0.537500 0.383086
vt 0.525000 0.383086
vt 0.512500 0.383086
vt 0.500000 0.383086
vt 0.487500 0.383086
vt 0.475000 0.383086
vt 0.462500 0.383086
vt 0.450000 0.383086
vt 0.437500 0.383086
vt 0.425000 0.383086
vt 0.412500 0.383086
vt 0.400000 0.383086
vt 0.387500 0.383086
vt 0.625000 0.383086
vt 0.375000 0.383086
vt 0.612500 0.383086
vt 0.600000 0.383086
vn 0.906667 0.302552 -0.293970
vn 0.771968 0.300699 -0.560040
vn 0.781141 0.260218 -0.567544
vn 0.917765 0.262260 -0.298208
vn 0.561499 0.298715 -0.771679
vn 0.567873 0.258031 -0.781627
vn 0.295688 0.296792 -0.908010
vn 0.298718 0.255914 -0.919389
vn 0.000509 0.295121 -0.955460
vn -0.000008 0.254075 -0.967185
vn -0.295048 0.293867 -0.909169
vn -0.298993 0.252694 -0.920189
vn -0.561847 0.293154 -0.773556
vn -0.568832 0.251910 -0.782925
vn -0.773541 0.293054 -0.561920
vn -0.782949 0.251801 -0.568847
vn -0.909235 0.293577 -0.295133
vn -0.920269 0.252376 -0.299018
vn -0.955599 0.294671 0.000460
vn -0.967315 0.253579 -0.000007
vn -0.908187 0.296226 0.295713
vn -0.919545 0.255291 0.298769
vn -0.771843 0.298088 0.561606
vn -0.781775 0.257341 0.567981
vn -0.560147 0.300074 0.772134
vn -0.567653 0.259529 0.781290
vn -0.293996 0.301989 0.906846
vn -0.298261 0.261640 0.917924
vn 0.000506 0.303647 0.952785
vn -0.000007 0.263467 0.964668
vn 0.294627 0.304886 0.905671
vn 0.297979 0.264835 0.917099
vn 0.559781 0.305589 0.770234
vn 0.566671 0.265610 0.779959
vn 0.726188 0.304953 0.616161
vn 0.735271 0.265065 0.623793
vn 0.849357 0.302163 0.432769
vn 0.860000 0.261511 0.438192
vn 0.915218 0.304924 0.263435
vn 0.952643 0.304092 0.000459
vn 0.964534 0.263959 -0.000006
vn 0.926721 0.264928 0.266462
vn 0.939740 -0.146349 -0.308983
vn 0.798931 -0.138185 -0.585332
vn 0.800098 -0.191385 -0.568521
vn 0.930342 -0.220833 -0.292741
vn 0.579560 -0.129535 -0.804569
vn 0.588842 -0.159094 -0.792436
vn 0.303181 -0.121257 -0.945187
vn 0.315816 -0.127154 -0.940262
vn -0.003058 -0.114144 -0.993460
vn 0.008011 -0.098921 -0.995063
vn -0.309148 -0.108858 -0.944763
vn -0.302943 -0.077467 -0.949855
vn -0.585183 -0.105876 -0.803960
vn -0.584713 -0.065158 -0.808619
vn -0.804256 -0.105459 -0.584851
vn -0.808056 -0.063352 -0.585689
vn -0.945012 -0.107645 -0.308812
vn -0.949921 -0.072251 -0.304024
vn -0.993677 -0.112241 -0.002748
vn -0.995837 -0.090870 0.007220
vn -0.945406 -0.118836 0.303457
vn -0.941589 -0.117155 0.315728
vn -0.804817 -0.126823 0.579815
vn -0.793892 -0.148226 0.589715
vn -0.585617 -0.135445 0.799192
vn -0.569536 -0.180771 0.801842
vn -0.309292 -0.143855 0.940024
vn -0.292878 -0.211497 0.932465
vn -0.002970 -0.151208 0.988498
vn 0.007747 -0.237525 0.971351
vn 0.303303 -0.156750 0.939913
vn 0.303588 -0.256637 0.917590
vn 0.579550 -0.159908 0.799094
vn 0.568122 -0.267355 0.778305
vn 0.752921 -0.160028 0.638358
vn 0.733916 -0.268949 0.623726
vn 0.879971 -0.156897 0.448368
vn 0.859338 -0.264237 0.437855
vn 0.949450 -0.157731 0.271413
vn 0.988191 -0.153201 -0.002659
vn 0.969558 -0.244762 0.006958
vn 0.926956 -0.259729 0.270726
vn 0.000000 -1.000000 -0.000000
vn 0.000000 -1.000000 -0.000000
vn 0.000000 -1.000000 -0.000000
vn 0.000000 -1.000000 -0.000000
vn 0.000000 -1.000000 -0.000000
vn -0.000000 -1.000000 -0.000000
vn -0.000000 -1.000000 -0.000000
vn -0.000000 -1.000000 -0.000000
vn -0.000000 -1.000000 -0.000000
vn -0.000000 -1.000000 -0.000000
vn -0.000000 -1.000000 0.000000
vn -0.000000 -1.000000 0.000000
vn -0.000000 -1.000000 0.000000
vn -0.000000 -1.000000 0.000000
vn -0.000000 -1.000000 0.000000
vn 0.000000 -1.000000 0.000000
vn 0.000000 -1.000000 0.000000
vn 0.000000 -1.000000 0.000000
vn 0.000000 -1.000000 0.000000
vn 0.000000 -1.000000 0.000000
vn 0.000000 -1.000000 0.000000
vn 0.000000 -1.000000 -0.000000
vn -0.000001 1.000000 0.000000
vn -0.000001 1.000000 0.000000
vn -0.000000 1.000000 0.000000
vn -0.000000 1.000000 0.000001
vn -0.000000 1.000000 0.000001
vn 0.000000 1.000000 0.000000
vn 0.000000 1.000000 0.000000
vn 0.000000 1.000000 0.000001
vn 0.000001 1.000000 0.000002
vn 0.000001 1.000000 0.000001
vn 0.000001 1.000000 0.000000
vn 0.000001 1.000000 -0.000001
vn 0.000001 1.000000 -0.000001
vn 0.000000 1.000000 0.000000
vn 0.000000 1.000000 -0.000001
vn -0.000000 1.000000 -0.000001
vn -0.000000 1.000000 -0.000001
vn -0.000000 1.000000 -0.000000
vn -0.000001 1.000000 -0.000001
vn -0.000001 1.000000 -0.000002
vn -0.000001 1.000000 -0.000000
vn -0.000001 1.000000 0.000001
vn 0.306062 0.134366 0.942482
vn 0.582325 0.135338 0.801611
vn -0.000242 0.132659 0.991162
vn -0.306664 0.130386 0.942845
vn -0.583233 0.127766 0.802194
vn -0.802856 0.125057 0.582909
vn -0.943980 0.122522 0.306414
vn -0.992724 0.120412 -0.000225
vn -0.944263 0.118934 -0.306956
vn -0.803320 0.118233 -0.583694
vn -0.583705 0.118379 -0.803290
vn -0.306963 0.119357 -0.944207
vn -0.000244 0.121071 -0.992644
vn 0.306371 0.123352 -0.943886
vn 0.582837 0.125976 -0.802765
vn 0.802100 0.128685 -0.583160
vn 0.942745 0.131214 -0.306618
vn 0.991074 0.133316 -0.000223
vn 0.952344 0.134649 0.273697
vn 0.755570 0.135142 0.640977
vn 0.883070 0.133175 0.449947
s 1
g pCylinder1
usemtl initialShadingGroup
f 1/21/1 2/22/2 104/150/3 105/152/4
f 2/22/2 3/23/5 103/149/6 104/150/3
f 3/23/5 4/24/7 102/148/8 103/149/6
f 4/24/7 5/25/9 101/147/10 102/148/8
f 5/25/9 6/26/11 100/146/12 101/147/10
f 6/26/11 7/27/13 99/145/14 100/146/12
f 7/27/13 8/28/15 98/144/16 99/145/14
f 8/28/15 9/29/17 97/143/18 98/144/16
f 9/29/17 10/30/19 96/142/20 97/143/18
f 10/30/19 11/31/21 95/141/22 96/142/20
f 11/31/21 12/32/23 94/140/24 95/141/22
f 12/32/23 13/33/25 93/139/26 94/140/24
f 13/33/25 14/34/27 92/138/28 93/139/26
f 14/34/27 15/35/29 91/137/30 92/138/28
f 15/35/29 16/36/31 90/136/32 91/137/30
f 16/36/31 17/37/33 89/135/34 90/136/32
f 17/37/33 18/38/35 88/134/36 89/135/34
f 18/38/35 83/127/37 87/133/38 88/134/36
f 19/39/39 20/40/40 106/153/41 107/154/42
f 20/40/40 1/41/1 105/151/4 106/153/41
f 21/42/43 22/43/44 42/64/45 41/63/46
f 22/43/44 23/44/47 43/65/48 42/64/45
f 23/44/47 24/45/49 44/66/50 43/65/48
f 24/45/49 25/46/51 45/67/52 44/66/50
f 25/46/51 26/47/53 46/68/54 45/67/52
f 26/47/53 27/48/55 47/69/56 46/68/54
f 27/48/55 28/49/57 48/70/58 47/69/56
f 28/49/57 29/50/59 49/71/60 48/70/58
f 29/50/59 30/51/61 50/72/62 49/71/60
f 30/51/61 31/52/63 51/73/64 50/72/62
f 31/52/63 32/53/65 52/74/66 51/73/64
f 32/53/65 33/54/67 53/75/68 52/74/66
f 33/54/67 34/55/69 54/76/70 53/75/68
f 34/55/69 35/56/71 55/77/72 54/76/70
f 35/56/71 36/57/73 56/78/74 55/77/72
f 36/57/73 37/58/75 57/79/76 56/78/74
f 37/58/75 38/59/77 58/80/78 57/79/76
f 38/59/77 85/130/79 86/132/80 58/80/78
f 39/60/81 40/61/82 60/82/83 59/81/84
f 40/61/82 21/62/43 41/83/46 60/82/83
s 4
f 2/2/85 1/1/86 61/104/87
f 3/3/88 2/2/85 61/104/87
f 4/4/89 3/3/88 61/104/87
f 5/5/90 4/4/89 61/104/87
f 6/6/91 5/5/90 61/104/87
f 7/7/92 6/6/91 61/104/87
f 8/8/93 7/7/92 61/104/87
f 9/9/94 8/8/93 61/104/87
f 10/10/95 9/9/94 61/104/87
f 11/11/96 10/10/95 61/104/87
f 12/12/97 11/11/96 61/104/87
f 13/13/98 12/12/97 61/104/87
f 14/14/99 13/13/98 61/104/87
f 15/15/100 14/14/99 61/104/87
f 16/16/101 15/15/100 61/104/87
f 17/17/102 16/16/101 61/104/87
f 18/18/103 17/17/102 61/104/87
f 19/19/104 83/128/105 18/18/103 61/104/87
f 20/20/106 19/19/104 61/104/87
f 1/1/86 20/20/106 61/104/87
s 5
f 41/102/107 42/101/108 62/105/109
f 42/101/108 43/100/110 62/105/109
f 43/100/110 44/99/111 62/105/109
f 44/99/111 45/98/112 62/105/109
f 45/98/112 46/97/113 62/105/109
f 46/97/113 47/96/114 62/105/109
f 47/96/114 48/95/115 62/105/109
f 48/95/115 49/94/116 62/105/109
f 49/94/116 50/93/117 62/105/109
f 50/93/117 51/92/118 62/105/109
f 51/92/118 52/91/119 62/105/109
f 52/91/119 53/90/120 62/105/109
f 53/90/120 54/89/121 62/105/109
f 54/89/121 55/88/122 62/105/109
f 55/88/122 56/87/123 62/105/109
f 56/87/123 57/86/124 62/105/109
f 57/86/124 58/85/125 62/105/109
f 58/85/125 86/131/126 59/84/127 62/105/109
f 59/84/127 60/103/128 62/105/109
f 60/103/128 41/102/107 62/105/109
s 1
f 64/107/129 63/106/130 37/58/75 36/57/73
f 65/108/131 64/107/129 36/57/73 35/56/71
f 66/109/132 65/108/131 35/56/71 34/55/69
f 67/110/133 66/109/132 34/55/69 33/54/67
f 68/111/134 67/110/133 33/54/67 32/53/65
f 69/112/135 68/111/134 32/53/65 31/52/63
f 70/113/136 69/112/135 31/52/63 30/51/61
f 71/114/137 70/113/136 30/51/61 29/50/59
f 72/115/138 71/114/137 29/50/59 28/49/57
f 73/116/139 72/115/138 28/49/57 27/48/55
f 74/117/140 73/116/139 27/48/55 26/47/53
f 75/118/141 74/117/140 26/47/53 25/46/51
f 76/119/142 75/118/141 25/46/51 24/45/49
f 77/120/143 76/119/142 24/45/49 23/44/47
f 78/121/144 77/120/143 23/44/47 22/43/44
f 79/123/145 78/121/144 22/43/44 21/42/43
f 80/124/146 79/122/145 21/62/43 40/61/82
f 81/125/147 80/124/146 40/61/82 39/60/81
f 82/126/148 84/129/149 85/130/79 38/59/77
f 63/106/130 82/126/148 38/59/77 37/58/75
f 83/127/37 19/39/39 107/154/42 87/133/38
f 85/130/79 84/129/149 81/125/147 39/60/81
f 86/132/80 85/130/79 39/60/81 59/81/84
f 88/134/36 87/133/38 84/129/149 82/126/148
f 89/135/34 88/134/36 82/126/148 63/106/130
f 90/136/32 89/135/34 63/106/130 64/107/129
f 91/137/30 90/136/32 64/107/129 65/108/131
f 92/138/28 91/137/30 65/108/131 66/109/132
f 93/139/26 92/138/28 66/109/132 67/110/133
f 94/140/24 93/139/26 67/110/133 68/111/134
f 95/141/22 94/140/24 68/111/134 69/112/135
f 96/142/20 95/141/22 69/112/135 70/113/136
f 97/143/18 96/142/20 70/113/136 71/114/137
f 98/144/16 97/143/18 71/114/137 72/115/138
f 99/145/14 98/144/16 72/115/138 73/116/139
f 100/146/12 99/145/14 73/116/139 74/117/140
f 101/147/10 100/146/12 74/117/140 75/118/141
f 102/148/8 101/147/10 75/118/141 76/119/142
f 103/149/6 102/148/8 76/119/142 77/120/143
f 104/150/3 103/149/6 77/120/143 78/121/144
f 105/152/4 104/150/3 78/121/144 79/123/145
f 106/153/41 105/151/4 79/122/145 80/124/146
f 107/154/42 106/153/41 80/124/146 81/125/147
f 87/133/38 107/154/42 81/125/147 84/129/149
